<svg xmlns="http://www.w3.org/2000/svg" viewBox="0 0 800 450">
  <defs>
    <linearGradient id="bg" x1="0" y1="0" x2="1" y2="1">
      <stop offset="0" stop-color="#6d28d9"/>
      <stop offset="1" stop-color="#a855f7"/>
    </linearGradient>
  </defs>
  <rect width="800" height="450" fill="url(#bg)"/>
  <rect x="120" y="120" width="180" height="210" rx="14" fill="#ffffff" opacity="0.95"/>
  <g fill="#6d28d9">
    <rect x="145" y="150" width="130" height="26" rx="6"/>
    <rect x="145" y="192" width="130" height="26" rx="6"/>
    <rect x="145" y="234" width="130" height="26" rx="6"/>
  </g>
  <g fill="#ffffff" opacity="0.85">
    <circle cx="160" cy="163" r="5"/>
    <circle cx="160" cy="205" r="5"/>
    <circle cx="160" cy="247" r="5"/>
  </g>
  <g stroke="#ffffff" stroke-width="14" fill="none" stroke-linecap="round" stroke-linejoin="round">
    <path d="M330 225 H 470"/>
    <path d="M440 195 L472 225 L440 255"/>
  </g>
  <rect x="500" y="110" width="220" height="170" rx="16" fill="#ffffff" opacity="0.95"/>
  <rect x="500" y="110" width="220" height="30" rx="16" fill="#5b21b6"/>
  <circle cx="516" cy="125" r="5" fill="#ffffff"/>
  <circle cx="532" cy="125" r="5" fill="#ffffff"/>
  <circle cx="548" cy="125" r="5" fill="#ffffff"/>
  <rect x="522" y="165" width="176" height="40" rx="8" fill="#a855f7" opacity="0.5"/>
  <rect x="522" y="215" width="130" height="16" rx="8" fill="#a855f7" opacity="0.35"/>
  <rect x="522" y="242" width="150" height="16" rx="8" fill="#a855f7" opacity="0.35"/>
</svg>
